<?xml version="1.0"?>
<svg xmlns="http://www.w3.org/2000/svg" xmlns:xlink="http://www.w3.org/1999/xlink" version="1.1" id="Capa_1" x="0px" y="0px" viewBox="0 0 512 512" style="enable-background:new 0 0 512 512;" xml:space="preserve" width="512px" height="512px" class=""><g><g>
	<g>
		<path d="M292.066,96.652l-29.442-55.421c-1.302-2.45-3.849-3.981-6.624-3.981c-2.775,0-5.322,1.531-6.624,3.981l-29.442,55.421    c-10.109,9.575-16.434,23.107-16.434,38.098c0,28.949,23.551,52.5,52.5,52.5c28.949,0,52.5-23.551,52.5-52.5    C308.5,119.76,302.175,106.228,292.066,96.652z M256,60.736l12.197,22.959C264.28,82.76,260.199,82.25,256,82.25    c-4.199,0-8.28,0.51-12.197,1.446L256,60.736z M256,97.25c17.96,0,33.005,12.694,36.651,29.58    c-20.154-2-38.58-11.212-52.297-26.147C245.12,98.485,250.417,97.25,256,97.25z M256,172.25c-20.678,0-37.5-16.822-37.5-37.5    c0-9.663,3.675-18.483,9.699-25.139c16.692,18.803,39.576,30.244,64.607,32.299C289.454,159.174,274.229,172.25,256,172.25z" data-original="#000000" class="active-path" data-old_color="#000000" fill="#FFFFFF"/>
	</g>
</g><g>
	<g>
		<path d="M482,127.25h-0.544c-0.476-3.31-1.265-6.517-2.33-9.599c-0.052-0.18-0.114-0.355-0.18-0.53    c-2.809-7.854-7.441-14.843-13.38-20.469l-29.442-55.421c-1.302-2.45-3.849-3.981-6.624-3.981c-2.775,0-5.322,1.531-6.624,3.981    l-29.442,55.421C383.325,106.228,377,119.76,377,134.75c0,28.949,23.551,52.5,52.5,52.5H482c16.542,0,30-13.458,30-30    S498.542,127.25,482,127.25z M429.5,60.736l12.197,22.959c-3.917-0.936-7.997-1.446-12.197-1.446c-4.2,0-8.28,0.51-12.197,1.446    L429.5,60.736z M429.5,97.25c12.242,0,23.131,5.898,29.98,15h-59.96C406.369,103.148,417.258,97.25,429.5,97.25z M429.501,172.25    c-20.678,0-37.5-16.822-37.5-37.5c-0.001-2.568,0.26-5.076,0.754-7.5h73.491c0.494,2.424,0.755,4.932,0.755,7.5    C467.001,155.428,450.179,172.25,429.501,172.25z M482,172.25h-15.808c8.054-7.882,13.586-18.324,15.263-30H482    c8.271,0,15,6.729,15,15S490.271,172.25,482,172.25z" data-original="#000000" class="active-path" data-old_color="#000000" fill="#FFFFFF"/>
	</g>
</g><g>
	<g>
		<path d="M504.5,202.25c-4.142,0-7.5,3.358-7.5,7.5v91.536c-4.416-2.561-9.538-4.036-15-4.036v-67.5    c0-15.164-12.336-27.5-27.5-27.5h-50c-15.164,0-27.5,12.336-27.5,27.5v37.5h-68.5v-30.568c23.748-3.625,42-24.187,42-48.932v-68    c0-4.142-3.358-7.5-7.5-7.5c-4.142,0-7.5,3.358-7.5,7.5v68c0,16.876-12.183,30.951-28.214,33.916    c-3.461-11.23-13.935-19.416-26.286-19.416h-50c-12.351,0-22.825,8.185-26.286,19.416c-16.031-2.965-28.214-17.04-28.214-33.916    v-68c0-4.142-3.358-7.5-7.5-7.5c-4.142,0-7.5,3.358-7.5,7.5v68c0,24.745,18.252,45.307,42,48.932v30.568H135v-37.5    c0-15.164-12.336-27.5-27.5-27.5h-50c-15.164,0-27.5,12.336-27.5,27.5v75c0,14.679,6.063,27.963,15.808,37.5H15v-132.5    c0-4.142-3.358-7.5-7.5-7.5s-7.5,3.358-7.5,7.5v257.5c0,4.142,3.358,7.5,7.5,7.5s7.5-3.358,7.5-7.5v-80h105v80    c0,4.142,3.358,7.5,7.5,7.5c4.142,0,7.5-3.358,7.5-7.5v-155h68.5v37.5c0,4.142,3.358,7.5,7.5,7.5h17.5v110    c0,4.142,3.358,7.5,7.5,7.5c4.142,0,7.5-3.358,7.5-7.5v-110h25v110c0,4.142,3.358,7.5,7.5,7.5c4.142,0,7.5-3.358,7.5-7.5v-110H301    c4.142,0,7.5-3.358,7.5-7.5v-37.5H377v155c0,4.142,3.358,7.5,7.5,7.5c4.142,0,7.5-3.358,7.5-7.5v-80h105v80    c0,4.142,3.358,7.5,7.5,7.5c4.142,0,7.5-3.358,7.5-7.5v-257.5C512,205.608,508.642,202.25,504.5,202.25z M120,372.25H15v-15h105    V372.25z M120,342.25H82.5c-18.11,0-33.261-12.904-36.745-30H120V342.25z M120,297.25H45v-67.5c0-6.893,5.607-12.5,12.5-12.5h50    c6.893,0,12.5,5.607,12.5,12.5V297.25z M218.5,229.75c0-6.893,5.607-12.5,12.5-12.5h50c6.893,0,12.5,5.607,12.5,12.5v37.5h-75    V229.75z M293.5,342.25h-75v-30h75V342.25z M377,297.25H135v-15h242V297.25z M497,372.25H392v-15h105V372.25z M497,342.25H392    v-112.5c0-6.893,5.607-12.5,12.5-12.5h50c6.893,0,12.5,5.607,12.5,12.5v67.5h-52.5c-4.142,0-7.5,3.358-7.5,7.5    c0,4.142,3.358,7.5,7.5,7.5H482c8.271,0,15,6.729,15,15V342.25z" data-original="#000000" class="active-path" data-old_color="#000000" fill="#FFFFFF"/>
	</g>
</g><g>
	<g>
		<path d="M122.725,101.061c-0.205-0.269-0.422-0.532-0.668-0.778c-1.125-1.281-2.281-2.484-3.492-3.631L89.124,41.231    c-1.302-2.45-3.849-3.981-6.624-3.981s-5.322,1.531-6.624,3.981L46.434,96.652c-1.211,1.147-2.367,2.35-3.464,3.606    c-0.273,0.271-0.491,0.533-0.695,0.802C34.621,110.185,30,121.936,30,134.75c0,28.949,23.551,52.5,52.5,52.5    s52.5-23.551,52.5-52.5C135,121.936,130.379,110.185,122.725,101.061z M82.5,60.736l12.197,22.959    C90.78,82.76,86.699,82.25,82.5,82.25s-8.28,0.51-12.197,1.446L82.5,60.736z M82.5,97.25c8.678,0,16.671,2.971,23.032,7.939    c-6.742,4.611-14.697,7.098-23.032,7.098s-16.29-2.487-23.032-7.098C65.83,100.221,73.822,97.25,82.5,97.25z M82.5,172.25    c-20.678,0-37.5-16.822-37.5-37.5c0-6.565,1.701-12.739,4.678-18.112c9.49,6.91,20.869,10.648,32.822,10.648    s23.332-3.739,32.822-10.648c2.977,5.373,4.678,11.546,4.678,18.112C120,155.428,103.178,172.25,82.5,172.25z" data-original="#000000" class="active-path" data-old_color="#000000" fill="#FFFFFF"/>
	</g>
</g><g>
	<g>
		<path d="M206,459.75h-21v-110c0-4.142-3.358-7.5-7.5-7.5h-20c-4.142,0-7.5,3.358-7.5,7.5c0,4.142,3.358,7.5,7.5,7.5H170v110    c0,4.142,3.358,7.5,7.5,7.5H206c4.142,0,7.5-3.358,7.5-7.5C213.5,463.108,210.142,459.75,206,459.75z" data-original="#000000" class="active-path" data-old_color="#000000" fill="#FFFFFF"/>
	</g>
</g><g>
	<g>
		<path d="M354.5,342.25h-20c-4.142,0-7.5,3.358-7.5,7.5v110h-21c-4.142,0-7.5,3.358-7.5,7.5c0,4.142,3.358,7.5,7.5,7.5h28.5    c4.142,0,7.5-3.358,7.5-7.5v-110h12.5c4.142,0,7.5-3.358,7.5-7.5C362,345.608,358.643,342.25,354.5,342.25z" data-original="#000000" class="active-path" data-old_color="#000000" fill="#FFFFFF"/>
	</g>
</g></g> </svg>
